<svg width="18" height="20" viewBox="0 0 18 20" fill="none" xmlns="http://www.w3.org/2000/svg">
<path d="M9 2.22662V0.487327C9 0.0500746 8.3925 -0.163693 8.04375 0.147242L4.89375 2.85821C4.66875 3.05254 4.66875 3.35376 4.89375 3.5481L8.0325 6.25906C8.3925 6.56028 9 6.34651 9 5.90926V4.16997C12.7237 4.16997 15.75 6.78376 15.75 10C15.75 10.7676 15.5812 11.5158 15.255 12.1863C15.0862 12.5361 15.21 12.9345 15.5138 13.1968C16.0875 13.6924 17.055 13.5175 17.3588 12.8664C17.775 11.9822 18 11.0105 18 10C18 5.70521 13.9725 2.22662 9 2.22662ZM9 15.83C5.27625 15.83 2.25 13.2162 2.25 10C2.25 9.23238 2.41875 8.48419 2.745 7.81374C2.91375 7.46394 2.79 7.06555 2.48625 6.8032C1.9125 6.30764 0.945 6.48255 0.64125 7.13357C0.225 8.01779 0 8.98946 0 10C0 14.2948 4.0275 17.7734 9 17.7734V19.5127C9 19.9499 9.6075 20.1637 9.95625 19.8528L13.095 17.1418C13.32 16.9475 13.32 16.6462 13.095 16.4519L9.95625 13.7409C9.87694 13.6738 9.7764 13.6284 9.66729 13.6106C9.55818 13.5927 9.44538 13.6031 9.34312 13.6405C9.24086 13.6779 9.1537 13.7406 9.09264 13.8208C9.03158 13.9009 8.99935 13.9948 9 14.0907V15.83Z" fill="#F2F2F2"/>
</svg>
